<svg xmlns="http://www.w3.org/2000/svg" role="img" aria-label="BeelineBench" viewBox="0 0 256 256" width="256" height="256">
  <rect width="256" height="256" fill="#fff"/>
  <g stroke="#000" stroke-width="4" stroke-linecap="round">
    <line x1="128.0" y1="38" x2="66.3" y2="98"/>
    <line x1="66.3" y1="98" x2="35.4" y2="158"/>
    <line x1="66.3" y1="98" x2="97.1" y2="158"/>
    <line x1="189.7" y1="98" x2="220.6" y2="158"/>
    <line x1="35.4" y1="158" x2="20.0" y2="218"/>
    <line x1="35.4" y1="158" x2="50.9" y2="218"/>
    <line x1="97.1" y1="158" x2="81.7" y2="218"/>
    <line x1="97.1" y1="158" x2="112.6" y2="218"/>
    <line x1="158.9" y1="158" x2="143.4" y2="218"/>
    <line x1="220.6" y1="158" x2="205.1" y2="218"/>
    <line x1="220.6" y1="158" x2="236.0" y2="218"/>
  </g>
  <polyline points="128.0,38 189.7,98 158.9,158 166.6,188.0" fill="none" stroke="#000" stroke-width="10" stroke-linecap="round" stroke-linejoin="round"/>
  <g fill="#fff" stroke="#000" stroke-width="4">
    <circle cx="66.3" cy="98" r="8"/>
    <circle cx="35.4" cy="158" r="8"/>
    <circle cx="97.1" cy="158" r="8"/>
    <circle cx="220.6" cy="158" r="8"/>
    <circle cx="20.0" cy="218" r="8"/>
    <circle cx="50.9" cy="218" r="8"/>
    <circle cx="81.7" cy="218" r="8"/>
    <circle cx="112.6" cy="218" r="8"/>
    <circle cx="143.4" cy="218" r="8"/>
    <circle cx="205.1" cy="218" r="8"/>
    <circle cx="236.0" cy="218" r="8"/>
  </g>
  <g fill="#000">
    <circle cx="128.0" cy="38" r="15"/>
    <circle cx="189.7" cy="98" r="11"/>
    <circle cx="158.9" cy="158" r="11"/>
  </g>
  <g stroke="#000" stroke-width="12" stroke-linecap="round"><line x1="162.3" y1="206" x2="186.3" y2="230"/><line x1="186.3" y1="206" x2="162.3" y2="230"/></g>
</svg>
